{"title":"Dream.House.2011.R5.LiNE.Xvid-SiNiSTER","uid":6893632,"size":1228899100,"categoryP":"video","categoryS":"movies","magnet":"?xt=urn:btih:041d678c74f45d08f4368db65e79954063463e90&amp;dn=Dream.House.2011.R5.LiNE.Xvid-SiNiSTER&amp;tr=udp%3A%2F%2Ftracker.openbittorrent.com%3A80&amp;tr=udp%3A%2F%2Fopen.demonii.com%3A1337&amp;tr=udp%3A%2F%2Ftracker.coppersurfer.tk%3A6969&amp;tr=udp%3A%2F%2Fexodus.desync.com%3A6969","seeders":0,"leechers":0,"uploader":"maximersk","files":9,"time":1324114573,"description":"Dream.House.2011.R5.LiNE.Xvid-SiNiSTER\n\n\n\n\n\n\n\n\nFormat : AVI\nFormat/Info : Audio Video Interleave\nFile size : 1.14 GiB\nDuration : 1h 27mn\nOverall bit rate : 1 879 Kbps\nWriting library : VirtualDub build 32839/release\n\nVideo\nID : 0\nFormat : MPEG-4 Visual\nFormat profile : Advanced Simple@L5\nFormat settings, BVOP : Yes\nFormat settings, QPel : No\nFormat settings, GMC : No warppoints\nFormat settings, Matrix : Default (H.263)\nCodec ID : XVID\nCodec ID/Hint : XviD\nDuration : 1h 27mn\nBit rate : 1 750 Kbps\nWidth : 720 pixels\nHeight : 288 pixels\nDisplay aspect ratio : 2.500\nFrame rate : 25.000 fps\nColor space : YUV\nChroma subsampling : 4:2:0\nBit depth : 8 bits\nScan type : Progressive\nBits/(Pixel*Frame) : 0.338\nStream size : 1.06 GiB (93%)\nWriting library : XviD 1.2.1 (UTC 2008-12-04)\n\nAudio\nID : 1\nFormat : MPEG Audio\nCodec ID : 55\nCodec ID/Hint : MP3\nDuration : 1h 21mn\nBit rate : 128 Kbps\nChannel(s) : 2 channels\nSampling rate : 44.1 KHz\nStream size : 74.8 MiB (6%)\nAlignment : Split accross interleaves\nInterleave, duration : 43 ms (1.07 video frame)\n\n\n\n\nVideo Source: Dom.grez.2011.D.DVD9......thanks \nAudio Source: DTRG.....thanks\n\n\nGreets:\nDarkScene,HDScene,Noir,CrEwSaDe,blackjesus,ViSiON,HDLiTE,BTVRG,Twentyforty,UnKnOwN,\nFLAWL3SS,Rx,Relizlab,MiSTERE,ILLUMiNATI,SAFCuk009,HiVE-CM8..... and everybody else we \nrespect.. u know who u are\n\n\n\n","torrent":{"xt":"urn:btih:041d678c74f45d08f4368db65e79954063463e90","amp;dn":"Dream.House.2011.R5.LiNE.Xvid-SiNiSTER","amp;tr":["udp%3A%2F%2Ftracker.openbittorrent.com%3A80","udp%3A%2F%2Fopen.demonii.com%3A1337","udp%3A%2F%2Ftracker.coppersurfer.tk%3A6969","udp%3A%2F%2Fexodus.desync.com%3A6969"],"infoHash":"041d678c74f45d08f4368db65e79954063463e90","infoHashBuffer":{"type":"Buffer","data":[4,29,103,140,116,244,93,8,244,54,141,182,94,121,149,64,99,70,62,144]},"announce":[],"urlList":[]}}